<svg width="40" height="40" viewBox="0 0 40 40" fill="none" xmlns="http://www.w3.org/2000/svg">
<path d="M38.9843 23.2919L38.9843 23.292L38.9926 23.291C39.093 23.2788 39.1899 23.2983 39.2775 23.3509L39.4072 23.4805C39.4909 23.5642 39.5392 23.7004 39.5074 23.873C37.6676 32.94 29.5385 39.5249 20.1849 39.5249H20.0316H20.0141C18.0402 39.5055 16.1061 39.2087 14.2693 38.6325L14.2687 38.6323C8.78293 36.9196 4.3531 32.9583 2.0811 27.7348L2.08076 27.734C1.2921 25.9296 0.785673 24.034 0.579987 22.1031L0.579642 22.1C0.504331 21.434 0.467264 20.7288 0.467264 20.0018C0.467264 9.24102 9.30806 0.478564 20.1867 0.475076C20.3592 0.475076 20.541 0.564176 20.6087 0.645917L20.6088 0.645928C20.7402 0.804564 20.7763 0.946053 20.7595 1.02906L20.7577 1.03829L20.7562 1.04759C20.716 1.29672 20.6726 1.59661 20.6726 1.90337C20.6726 2.74148 20.9318 3.55477 21.3823 4.23645C21.4862 4.40573 21.486 4.59713 21.4069 4.73669L21.4068 4.73668L21.4043 4.74133C20.9225 5.6138 20.6726 6.60737 20.6726 7.61896C20.6726 10.7163 23.0057 13.3527 26.1039 13.7465C26.2623 13.7692 26.3803 13.8438 26.4449 13.9401C26.5293 14.066 26.5555 14.1994 26.5305 14.3274C26.4587 14.5966 26.4401 14.911 26.4401 15.2379C26.4401 18.6472 29.2534 21.4268 32.6845 21.4268C33.245 21.4268 33.7899 21.3464 34.2764 21.1999C34.5171 21.1374 34.7345 21.2288 34.8421 21.3979L34.8421 21.3979L34.8476 21.4062C35.7393 22.7441 37.3578 23.4608 38.9843 23.2919Z" fill="#F59F67" stroke="#99583C" stroke-width="0.950152"/>
<path d="M13.455 19.0508C11.3402 19.0508 9.60938 20.7649 9.60938 22.8593C9.60938 24.9538 11.3402 26.6679 13.455 26.6679C15.5698 26.6679 17.3006 24.9538 17.3006 22.8593C17.3006 20.7649 15.5698 19.0508 13.455 19.0508Z" fill="#99583C"/>
<path d="M14.4159 5.71875C12.8204 5.71875 11.5312 6.99543 11.5312 8.57563C11.5312 10.1558 12.8204 11.4325 14.4159 11.4325C16.0115 11.4325 17.3006 10.1558 17.3006 8.57563C17.3006 6.99543 16.0115 5.71875 14.4159 5.71875Z" fill="#99583C"/>
<path d="M27.8769 26.668C26.2813 26.668 24.9922 27.9447 24.9922 29.5249C24.9922 31.105 26.2813 32.3817 27.8769 32.3817C29.4724 32.3817 30.7615 31.105 30.7615 29.5249C30.7615 27.9447 29.4724 26.668 27.8769 26.668Z" fill="#99583C"/>
<path d="M7.08865 13.4108C6.85788 13.3162 6.58926 13.3162 6.35849 13.4108C6.2431 13.4483 6.12771 13.5251 6.05019 13.6197C5.85727 13.7911 5.76172 14.0393 5.76172 14.2857C5.76172 14.5339 5.85727 14.7803 6.05019 14.9517C6.22327 15.1428 6.47387 15.2374 6.72266 15.2374C6.83805 15.2374 6.97327 15.2178 7.08865 15.1606C7.20404 15.1231 7.31943 15.0464 7.39695 14.9517C7.58987 14.7803 7.68542 14.5321 7.68542 14.2857C7.68542 14.0375 7.58987 13.7911 7.39695 13.6197C7.31943 13.5251 7.20404 13.4483 7.08865 13.4108Z" fill="#99583C"/>
<path d="M22.4715 19.1272C22.1055 18.9754 21.6836 19.07 21.433 19.3361C21.2401 19.5075 21.1445 19.7557 21.1445 20.0021C21.1445 20.2503 21.2401 20.4966 21.433 20.6681C21.6061 20.8591 21.8567 20.9537 22.1055 20.9537C22.2209 20.9537 22.3561 20.9341 22.4715 20.877C22.5869 20.8395 22.7022 20.7627 22.7798 20.6681C22.9727 20.4966 23.0682 20.2485 23.0682 20.0021C23.0682 19.7539 22.9727 19.5075 22.7798 19.3361C22.7022 19.2414 22.5869 19.1647 22.4715 19.1272Z" fill="#99583C"/>
<path d="M31.7254 7.59982C31.3594 7.44805 30.9375 7.54268 30.6869 7.80872C30.494 7.98014 30.3984 8.22833 30.3984 8.47472C30.3984 8.72291 30.494 8.9693 30.6869 9.14072C30.86 9.33177 31.1106 9.42641 31.3594 9.42641C31.4748 9.42641 31.61 9.40677 31.7254 9.34963C31.8408 9.31213 31.9561 9.23535 32.0337 9.14072C32.2266 8.9693 32.3221 8.72111 32.3221 8.47472C32.3221 8.22653 32.2266 7.98014 32.0337 7.80872C31.9561 7.71409 31.8408 7.63731 31.7254 7.59982Z" fill="#99583C"/>
<path d="M29.823 1.01388C29.457 0.862108 29.0352 0.95674 28.7846 1.22279C28.5916 1.3942 28.4961 1.64239 28.4961 1.88878C28.4961 2.13698 28.5916 2.38337 28.7846 2.55478C28.9576 2.74583 29.2082 2.84047 29.457 2.84047C29.5724 2.84047 29.7076 2.82083 29.823 2.76369C29.9384 2.72619 30.0538 2.64941 30.1313 2.55478C30.3242 2.38337 30.4198 2.13517 30.4198 1.88878C30.4198 1.64059 30.3242 1.3942 30.1313 1.22279C30.0538 1.12815 29.9384 1.05138 29.823 1.01388Z" fill="#99583C"/>
<path d="M20.8579 28.8595C20.7804 28.7649 20.665 28.6881 20.5496 28.6506C20.1836 28.4988 19.7797 28.5935 19.5111 28.8595C19.4156 28.9363 19.338 29.0506 19.3002 29.1648C19.2425 29.2791 19.2227 29.413 19.2227 29.5273C19.2227 29.7755 19.3182 30.0219 19.5111 30.1933C19.6842 30.3844 19.9348 30.479 20.1836 30.479C20.299 30.479 20.4342 30.4593 20.5496 30.4022C20.665 30.3647 20.7804 30.2879 20.8579 30.1933C21.0508 30.0219 21.1464 29.7737 21.1464 29.5273C21.1464 29.413 21.1464 29.2791 21.0688 29.1648C21.031 29.0506 20.9535 28.9363 20.8579 28.8595Z" fill="#99583C"/>
<path d="M27.2798 9.69154C27.2023 9.5969 27.0869 9.52012 26.9715 9.48263C26.6055 9.33086 26.2016 9.42549 25.933 9.69154C25.8374 9.76832 25.7599 9.88259 25.7221 9.99687C25.6644 10.1111 25.6445 10.2451 25.6445 10.3593C25.6445 10.6075 25.7401 10.8539 25.933 11.0253C26.1061 11.2164 26.3567 11.311 26.6055 11.311C26.7209 11.311 26.8561 11.2914 26.9715 11.2342C27.0869 11.1967 27.2022 11.12 27.2798 11.0253C27.4727 10.8539 27.5682 10.6057 27.5682 10.3593C27.5682 10.2451 27.5682 10.1111 27.4907 9.99687C27.4528 9.88259 27.3753 9.76832 27.2798 9.69154Z" fill="#99583C"/>
<path d="M11.2446 30.7619C11.1671 30.6672 11.0517 30.5904 10.9363 30.5529C10.5703 30.4012 10.1665 30.4958 9.89784 30.7619C9.80229 30.8386 9.72476 30.9529 9.6869 31.0672C9.62921 31.1815 9.60938 31.3154 9.60938 31.4296C9.60938 31.6778 9.70493 31.9242 9.89784 32.0956C10.0709 32.2867 10.3215 32.3813 10.5703 32.3813C10.6857 32.3813 10.8209 32.3617 10.9363 32.3046C11.0517 32.2671 11.1671 32.1903 11.2446 32.0956C11.4375 31.9242 11.5331 31.676 11.5331 31.4296C11.5331 31.3154 11.5331 31.1815 11.4555 31.0672C11.4177 30.9529 11.3402 30.8386 11.2446 30.7619Z" fill="#99583C"/>
<path d="M33.2804 26.7469C33.165 26.7844 33.0496 26.8612 32.9721 26.9559C32.7791 27.1273 32.6836 27.3755 32.6836 27.6218C32.6836 27.87 32.7791 28.1164 32.9721 28.2878C33.0496 28.3825 33.165 28.4593 33.2804 28.4968C33.3957 28.5539 33.5111 28.5735 33.6464 28.5735C33.897 28.5735 34.1457 28.4789 34.3188 28.2878C34.5117 28.1164 34.6073 27.8682 34.6073 27.6218C34.6073 27.5076 34.6073 27.3737 34.5298 27.2594C34.4919 27.1451 34.4144 27.0308 34.3188 26.954C34.0502 26.688 33.6265 26.5916 33.2803 26.7451L33.2804 26.7469Z" fill="#99583C"/>
<path d="M35.7452 14.1923C35.6298 14.2298 35.5144 14.3065 35.4369 14.4012C35.244 14.5726 35.1484 14.8208 35.1484 15.0672C35.1484 15.3154 35.244 15.5617 35.4369 15.7332C35.5144 15.8278 35.6298 15.9046 35.7452 15.9421C35.8606 15.9992 35.976 16.0188 36.1112 16.0188C36.3618 16.0188 36.6106 15.9242 36.7837 15.7332C36.9766 15.5617 37.0721 15.3136 37.0721 15.0672C37.0721 14.9529 37.0721 14.819 36.9946 14.7047C36.9568 14.5904 36.8792 14.4761 36.7837 14.3994C36.515 14.1333 36.0913 14.0369 35.7452 14.1905L35.7452 14.1923Z" fill="#99583C"/>
</svg>
