<svg width="1920" height="1024" viewBox="0 0 1920 1024" fill="none" xmlns="http://www.w3.org/2000/svg">
<mask id="path-1-inside-1_1042_6668" fill="white">
<path d="M277 0H618.5V1024H277V0Z"/>
</mask>
<path d="M276.5 0V4H277.5V0H276.5ZM276.5 12V20H277.5V12H276.5ZM276.5 28V36H277.5V28H276.5ZM276.5 44V52H277.5V44H276.5ZM276.5 60V68H277.5V60H276.5ZM276.5 76V84H277.5V76H276.5ZM276.5 92V100H277.5V92H276.5ZM276.5 108V116H277.5V108H276.5ZM276.5 124V132H277.5V124H276.5ZM276.5 140V148H277.5V140H276.5ZM276.5 156V164H277.5V156H276.5ZM276.5 172V180H277.5V172H276.5ZM276.5 188V196H277.5V188H276.5ZM276.5 204V212H277.5V204H276.5ZM276.5 220V228H277.5V220H276.5ZM276.5 236V244H277.5V236H276.5ZM276.5 252V260H277.5V252H276.5ZM276.5 268V276H277.5V268H276.5ZM276.5 284V292H277.5V284H276.5ZM276.5 300V308H277.5V300H276.5ZM276.5 316V324H277.5V316H276.5ZM276.5 332V340H277.5V332H276.5ZM276.5 348V356H277.5V348H276.5ZM276.5 364V372H277.5V364H276.5ZM276.5 380V388H277.5V380H276.5ZM276.5 396V404H277.5V396H276.5ZM276.5 412V420H277.5V412H276.5ZM276.5 428V436H277.5V428H276.5ZM276.5 444V452H277.5V444H276.5ZM276.5 460V468H277.5V460H276.5ZM276.5 476V484H277.5V476H276.5ZM276.5 492V500H277.5V492H276.5ZM276.5 508V516H277.5V508H276.5ZM276.5 524V532H277.5V524H276.5ZM276.5 540V548H277.5V540H276.5ZM276.5 556V564H277.5V556H276.5ZM276.5 572V580H277.5V572H276.5ZM276.5 588V596H277.5V588H276.5ZM276.5 604V612H277.5V604H276.5ZM276.5 620V628H277.5V620H276.5ZM276.5 636V644H277.5V636H276.5ZM276.5 652V660H277.5V652H276.5ZM276.5 668V676H277.5V668H276.5ZM276.5 684V692H277.5V684H276.5ZM276.5 700V708H277.5V700H276.5ZM276.5 716V724H277.5V716H276.5ZM276.5 732V740H277.5V732H276.5ZM276.5 748V756H277.5V748H276.5ZM276.5 764V772H277.5V764H276.5ZM276.5 780V788H277.5V780H276.5ZM276.5 796V804H277.5V796H276.5ZM276.5 812V820H277.5V812H276.5ZM276.5 828V836H277.5V828H276.5ZM276.5 844V852H277.5V844H276.5ZM276.5 860V868H277.5V860H276.5ZM276.5 876V884H277.5V876H276.5ZM276.5 892V900H277.5V892H276.5ZM276.5 908V916H277.5V908H276.5ZM276.5 924V932H277.5V924H276.5ZM276.5 940V948H277.5V940H276.5ZM276.5 956V964H277.5V956H276.5ZM276.5 972V980H277.5V972H276.5ZM276.5 988V996H277.5V988H276.5ZM276.5 1004V1012H277.5V1004H276.5ZM276.5 1020V1024H277.5V1020H276.5ZM619 1024V1020H618V1024H619ZM619 1012V1004H618V1012H619ZM619 996V988H618V996H619ZM619 980V972H618V980H619ZM619 964V956H618V964H619ZM619 948V940H618V948H619ZM619 932V924H618V932H619ZM619 916V908H618V916H619ZM619 900V892H618V900H619ZM619 884V876H618V884H619ZM619 868V860H618V868H619ZM619 852V844H618V852H619ZM619 836V828H618V836H619ZM619 820V812H618V820H619ZM619 804V796H618V804H619ZM619 788V780H618V788H619ZM619 772V764H618V772H619ZM619 756V748H618V756H619ZM619 740V732H618V740H619ZM619 724V716H618V724H619ZM619 708V700H618V708H619ZM619 692V684H618V692H619ZM619 676V668H618V676H619ZM619 660V652H618V660H619ZM619 644V636H618V644H619ZM619 628V620H618V628H619ZM619 612V604H618V612H619ZM619 596V588H618V596H619ZM619 580V572H618V580H619ZM619 564V556H618V564H619ZM619 548V540H618V548H619ZM619 532V524H618V532H619ZM619 516V508H618V516H619ZM619 500V492H618V500H619ZM619 484V476H618V484H619ZM619 468V460H618V468H619ZM619 452V444H618V452H619ZM619 436V428H618V436H619ZM619 420V412H618V420H619ZM619 404V396H618V404H619ZM619 388V380H618V388H619ZM619 372V364H618V372H619ZM619 356V348H618V356H619ZM619 340V332H618V340H619ZM619 324V316H618V324H619ZM619 308V300H618V308H619ZM619 292V284H618V292H619ZM619 276V268H618V276H619ZM619 260V252H618V260H619ZM619 244V236H618V244H619ZM619 228V220H618V228H619ZM619 212V204H618V212H619ZM619 196V188H618V196H619ZM619 180V172H618V180H619ZM619 164V156H618V164H619ZM619 148V140H618V148H619ZM619 132V124H618V132H619ZM619 116V108H618V116H619ZM619 100V92H618V100H619ZM619 84V76H618V84H619ZM619 68V60H618V68H619ZM619 52V44H618V52H619ZM619 36V28H618V36H619ZM619 20V12H618V20H619ZM619 4V0H618V4H619ZM276 0V4H278V0H276ZM276 12V20H278V12H276ZM276 28V36H278V28H276ZM276 44V52H278V44H276ZM276 60V68H278V60H276ZM276 76V84H278V76H276ZM276 92V100H278V92H276ZM276 108V116H278V108H276ZM276 124V132H278V124H276ZM276 140V148H278V140H276ZM276 156V164H278V156H276ZM276 172V180H278V172H276ZM276 188V196H278V188H276ZM276 204V212H278V204H276ZM276 220V228H278V220H276ZM276 236V244H278V236H276ZM276 252V260H278V252H276ZM276 268V276H278V268H276ZM276 284V292H278V284H276ZM276 300V308H278V300H276ZM276 316V324H278V316H276ZM276 332V340H278V332H276ZM276 348V356H278V348H276ZM276 364V372H278V364H276ZM276 380V388H278V380H276ZM276 396V404H278V396H276ZM276 412V420H278V412H276ZM276 428V436H278V428H276ZM276 444V452H278V444H276ZM276 460V468H278V460H276ZM276 476V484H278V476H276ZM276 492V500H278V492H276ZM276 508V516H278V508H276ZM276 524V532H278V524H276ZM276 540V548H278V540H276ZM276 556V564H278V556H276ZM276 572V580H278V572H276ZM276 588V596H278V588H276ZM276 604V612H278V604H276ZM276 620V628H278V620H276ZM276 636V644H278V636H276ZM276 652V660H278V652H276ZM276 668V676H278V668H276ZM276 684V692H278V684H276ZM276 700V708H278V700H276ZM276 716V724H278V716H276ZM276 732V740H278V732H276ZM276 748V756H278V748H276ZM276 764V772H278V764H276ZM276 780V788H278V780H276ZM276 796V804H278V796H276ZM276 812V820H278V812H276ZM276 828V836H278V828H276ZM276 844V852H278V844H276ZM276 860V868H278V860H276ZM276 876V884H278V876H276ZM276 892V900H278V892H276ZM276 908V916H278V908H276ZM276 924V932H278V924H276ZM276 940V948H278V940H276ZM276 956V964H278V956H276ZM276 972V980H278V972H276ZM276 988V996H278V988H276ZM276 1004V1012H278V1004H276ZM276 1020V1024H278V1020H276ZM619.5 1024V1020H617.5V1024H619.5ZM619.5 1012V1004H617.5V1012H619.5ZM619.5 996V988H617.5V996H619.5ZM619.5 980V972H617.5V980H619.5ZM619.5 964V956H617.5V964H619.5ZM619.5 948V940H617.5V948H619.5ZM619.5 932V924H617.5V932H619.5ZM619.5 916V908H617.5V916H619.5ZM619.5 900V892H617.5V900H619.5ZM619.5 884V876H617.5V884H619.5ZM619.5 868V860H617.5V868H619.5ZM619.5 852V844H617.5V852H619.5ZM619.5 836V828H617.5V836H619.5ZM619.5 820V812H617.5V820H619.5ZM619.5 804V796H617.5V804H619.5ZM619.5 788V780H617.5V788H619.5ZM619.5 772V764H617.5V772H619.5ZM619.5 756V748H617.5V756H619.5ZM619.5 740V732H617.5V740H619.5ZM619.5 724V716H617.5V724H619.5ZM619.5 708V700H617.5V708H619.5ZM619.5 692V684H617.5V692H619.5ZM619.5 676V668H617.5V676H619.5ZM619.5 660V652H617.5V660H619.5ZM619.5 644V636H617.5V644H619.5ZM619.5 628V620H617.5V628H619.5ZM619.5 612V604H617.5V612H619.5ZM619.5 596V588H617.5V596H619.5ZM619.5 580V572H617.5V580H619.5ZM619.5 564V556H617.5V564H619.5ZM619.5 548V540H617.5V548H619.5ZM619.5 532V524H617.5V532H619.5ZM619.5 516V508H617.5V516H619.5ZM619.5 500V492H617.5V500H619.5ZM619.5 484V476H617.5V484H619.5ZM619.5 468V460H617.5V468H619.5ZM619.5 452V444H617.5V452H619.5ZM619.5 436V428H617.5V436H619.5ZM619.5 420V412H617.5V420H619.5ZM619.5 404V396H617.5V404H619.5ZM619.5 388V380H617.5V388H619.5ZM619.5 372V364H617.5V372H619.5ZM619.5 356V348H617.5V356H619.5ZM619.5 340V332H617.5V340H619.5ZM619.5 324V316H617.5V324H619.5ZM619.5 308V300H617.5V308H619.5ZM619.5 292V284H617.5V292H619.5ZM619.5 276V268H617.5V276H619.5ZM619.5 260V252H617.5V260H619.5ZM619.5 244V236H617.5V244H619.5ZM619.5 228V220H617.5V228H619.5ZM619.5 212V204H617.5V212H619.5ZM619.5 196V188H617.5V196H619.5ZM619.5 180V172H617.5V180H619.5ZM619.5 164V156H617.5V164H619.5ZM619.5 148V140H617.5V148H619.5ZM619.5 132V124H617.5V132H619.5ZM619.5 116V108H617.5V116H619.5ZM619.5 100V92H617.5V100H619.5ZM619.5 84V76H617.5V84H619.5ZM619.5 68V60H617.5V68H619.5ZM619.5 52V44H617.5V52H619.5ZM619.5 36V28H617.5V36H619.5ZM619.5 20V12H617.5V20H619.5ZM619.5 4V0H617.5V4H619.5Z" fill="#425466" fill-opacity="0.11" mask="url(#path-1-inside-1_1042_6668)"/>
<mask id="path-3-inside-2_1042_6668" fill="white">
<path d="M618.5 0H960V1024H618.5V0Z"/>
</mask>
<path d="M960.5 1024V1020H959.5V1024H960.5ZM960.5 1012V1004H959.5V1012H960.5ZM960.5 996V988H959.5V996H960.5ZM960.5 980V972H959.5V980H960.5ZM960.5 964V956H959.5V964H960.5ZM960.5 948V940H959.5V948H960.5ZM960.5 932V924H959.5V932H960.5ZM960.5 916V908H959.5V916H960.5ZM960.5 900V892H959.5V900H960.5ZM960.5 884V876H959.5V884H960.5ZM960.5 868V860H959.5V868H960.5ZM960.5 852V844H959.5V852H960.5ZM960.5 836V828H959.5V836H960.5ZM960.5 820V812H959.5V820H960.5ZM960.5 804V796H959.5V804H960.5ZM960.5 788V780H959.5V788H960.5ZM960.5 772V764H959.5V772H960.5ZM960.5 756V748H959.5V756H960.5ZM960.5 740V732H959.5V740H960.5ZM960.5 724V716H959.5V724H960.5ZM960.5 708V700H959.5V708H960.5ZM960.5 692V684H959.5V692H960.5ZM960.5 676V668H959.5V676H960.5ZM960.5 660V652H959.5V660H960.5ZM960.5 644V636H959.5V644H960.5ZM960.5 628V620H959.5V628H960.5ZM960.5 612V604H959.5V612H960.5ZM960.5 596V588H959.5V596H960.5ZM960.5 580V572H959.5V580H960.5ZM960.5 564V556H959.5V564H960.5ZM960.5 548V540H959.5V548H960.5ZM960.5 532V524H959.5V532H960.5ZM960.5 516V508H959.5V516H960.5ZM960.5 500V492H959.5V500H960.5ZM960.5 484V476H959.5V484H960.5ZM960.5 468V460H959.5V468H960.5ZM960.5 452V444H959.5V452H960.5ZM960.5 436V428H959.5V436H960.5ZM960.5 420V412H959.5V420H960.5ZM960.5 404V396H959.5V404H960.5ZM960.5 388V380H959.5V388H960.5ZM960.5 372V364H959.5V372H960.5ZM960.5 356V348H959.5V356H960.5ZM960.5 340V332H959.5V340H960.5ZM960.5 324V316H959.5V324H960.5ZM960.5 308V300H959.5V308H960.5ZM960.5 292V284H959.5V292H960.5ZM960.5 276V268H959.5V276H960.5ZM960.5 260V252H959.5V260H960.5ZM960.5 244V236H959.5V244H960.5ZM960.5 228V220H959.5V228H960.5ZM960.5 212V204H959.5V212H960.5ZM960.5 196V188H959.5V196H960.5ZM960.5 180V172H959.5V180H960.5ZM960.5 164V156H959.5V164H960.5ZM960.5 148V140H959.5V148H960.5ZM960.5 132V124H959.5V132H960.5ZM960.5 116V108H959.5V116H960.5ZM960.5 100V92H959.5V100H960.5ZM960.5 84V76H959.5V84H960.5ZM960.5 68V60H959.5V68H960.5ZM960.5 52V44H959.5V52H960.5ZM960.5 36V28H959.5V36H960.5ZM960.5 20V12H959.5V20H960.5ZM960.5 4V0H959.5V4H960.5ZM961 1024V1020H959V1024H961ZM961 1012V1004H959V1012H961ZM961 996V988H959V996H961ZM961 980V972H959V980H961ZM961 964V956H959V964H961ZM961 948V940H959V948H961ZM961 932V924H959V932H961ZM961 916V908H959V916H961ZM961 900V892H959V900H961ZM961 884V876H959V884H961ZM961 868V860H959V868H961ZM961 852V844H959V852H961ZM961 836V828H959V836H961ZM961 820V812H959V820H961ZM961 804V796H959V804H961ZM961 788V780H959V788H961ZM961 772V764H959V772H961ZM961 756V748H959V756H961ZM961 740V732H959V740H961ZM961 724V716H959V724H961ZM961 708V700H959V708H961ZM961 692V684H959V692H961ZM961 676V668H959V676H961ZM961 660V652H959V660H961ZM961 644V636H959V644H961ZM961 628V620H959V628H961ZM961 612V604H959V612H961ZM961 596V588H959V596H961ZM961 580V572H959V580H961ZM961 564V556H959V564H961ZM961 548V540H959V548H961ZM961 532V524H959V532H961ZM961 516V508H959V516H961ZM961 500V492H959V500H961ZM961 484V476H959V484H961ZM961 468V460H959V468H961ZM961 452V444H959V452H961ZM961 436V428H959V436H961ZM961 420V412H959V420H961ZM961 404V396H959V404H961ZM961 388V380H959V388H961ZM961 372V364H959V372H961ZM961 356V348H959V356H961ZM961 340V332H959V340H961ZM961 324V316H959V324H961ZM961 308V300H959V308H961ZM961 292V284H959V292H961ZM961 276V268H959V276H961ZM961 260V252H959V260H961ZM961 244V236H959V244H961ZM961 228V220H959V228H961ZM961 212V204H959V212H961ZM961 196V188H959V196H961ZM961 180V172H959V180H961ZM961 164V156H959V164H961ZM961 148V140H959V148H961ZM961 132V124H959V132H961ZM961 116V108H959V116H961ZM961 100V92H959V100H961ZM961 84V76H959V84H961ZM961 68V60H959V68H961ZM961 52V44H959V52H961ZM961 36V28H959V36H961ZM961 20V12H959V20H961ZM961 4V0H959V4H961Z" fill="#425466" fill-opacity="0.11" mask="url(#path-3-inside-2_1042_6668)"/>
<mask id="path-5-inside-3_1042_6668" fill="white">
<path d="M960 0H1301.5V1024H960V0Z"/>
</mask>
<path d="M1302 1024V1020H1301V1024H1302ZM1302 1012V1004H1301V1012H1302ZM1302 996V988H1301V996H1302ZM1302 980V972H1301V980H1302ZM1302 964V956H1301V964H1302ZM1302 948V940H1301V948H1302ZM1302 932V924H1301V932H1302ZM1302 916V908H1301V916H1302ZM1302 900V892H1301V900H1302ZM1302 884V876H1301V884H1302ZM1302 868V860H1301V868H1302ZM1302 852V844H1301V852H1302ZM1302 836V828H1301V836H1302ZM1302 820V812H1301V820H1302ZM1302 804V796H1301V804H1302ZM1302 788V780H1301V788H1302ZM1302 772V764H1301V772H1302ZM1302 756V748H1301V756H1302ZM1302 740V732H1301V740H1302ZM1302 724V716H1301V724H1302ZM1302 708V700H1301V708H1302ZM1302 692V684H1301V692H1302ZM1302 676V668H1301V676H1302ZM1302 660V652H1301V660H1302ZM1302 644V636H1301V644H1302ZM1302 628V620H1301V628H1302ZM1302 612V604H1301V612H1302ZM1302 596V588H1301V596H1302ZM1302 580V572H1301V580H1302ZM1302 564V556H1301V564H1302ZM1302 548V540H1301V548H1302ZM1302 532V524H1301V532H1302ZM1302 516V508H1301V516H1302ZM1302 500V492H1301V500H1302ZM1302 484V476H1301V484H1302ZM1302 468V460H1301V468H1302ZM1302 452V444H1301V452H1302ZM1302 436V428H1301V436H1302ZM1302 420V412H1301V420H1302ZM1302 404V396H1301V404H1302ZM1302 388V380H1301V388H1302ZM1302 372V364H1301V372H1302ZM1302 356V348H1301V356H1302ZM1302 340V332H1301V340H1302ZM1302 324V316H1301V324H1302ZM1302 308V300H1301V308H1302ZM1302 292V284H1301V292H1302ZM1302 276V268H1301V276H1302ZM1302 260V252H1301V260H1302ZM1302 244V236H1301V244H1302ZM1302 228V220H1301V228H1302ZM1302 212V204H1301V212H1302ZM1302 196V188H1301V196H1302ZM1302 180V172H1301V180H1302ZM1302 164V156H1301V164H1302ZM1302 148V140H1301V148H1302ZM1302 132V124H1301V132H1302ZM1302 116V108H1301V116H1302ZM1302 100V92H1301V100H1302ZM1302 84V76H1301V84H1302ZM1302 68V60H1301V68H1302ZM1302 52V44H1301V52H1302ZM1302 36V28H1301V36H1302ZM1302 20V12H1301V20H1302ZM1302 4V0H1301V4H1302ZM1302.5 1024V1020H1300.5V1024H1302.5ZM1302.5 1012V1004H1300.5V1012H1302.5ZM1302.5 996V988H1300.5V996H1302.5ZM1302.5 980V972H1300.5V980H1302.5ZM1302.5 964V956H1300.5V964H1302.5ZM1302.5 948V940H1300.5V948H1302.5ZM1302.5 932V924H1300.5V932H1302.5ZM1302.5 916V908H1300.5V916H1302.5ZM1302.5 900V892H1300.5V900H1302.5ZM1302.5 884V876H1300.5V884H1302.5ZM1302.5 868V860H1300.5V868H1302.5ZM1302.5 852V844H1300.5V852H1302.5ZM1302.5 836V828H1300.5V836H1302.5ZM1302.5 820V812H1300.5V820H1302.5ZM1302.5 804V796H1300.5V804H1302.5ZM1302.5 788V780H1300.5V788H1302.5ZM1302.5 772V764H1300.5V772H1302.5ZM1302.5 756V748H1300.5V756H1302.5ZM1302.5 740V732H1300.5V740H1302.5ZM1302.5 724V716H1300.5V724H1302.5ZM1302.5 708V700H1300.5V708H1302.5ZM1302.5 692V684H1300.5V692H1302.5ZM1302.5 676V668H1300.5V676H1302.5ZM1302.5 660V652H1300.5V660H1302.5ZM1302.5 644V636H1300.5V644H1302.5ZM1302.5 628V620H1300.5V628H1302.5ZM1302.5 612V604H1300.5V612H1302.5ZM1302.5 596V588H1300.5V596H1302.5ZM1302.5 580V572H1300.5V580H1302.5ZM1302.5 564V556H1300.5V564H1302.5ZM1302.5 548V540H1300.5V548H1302.5ZM1302.5 532V524H1300.5V532H1302.5ZM1302.5 516V508H1300.5V516H1302.5ZM1302.5 500V492H1300.5V500H1302.5ZM1302.5 484V476H1300.5V484H1302.5ZM1302.5 468V460H1300.5V468H1302.5ZM1302.5 452V444H1300.5V452H1302.5ZM1302.5 436V428H1300.5V436H1302.5ZM1302.5 420V412H1300.5V420H1302.5ZM1302.5 404V396H1300.5V404H1302.5ZM1302.5 388V380H1300.5V388H1302.5ZM1302.5 372V364H1300.5V372H1302.5ZM1302.5 356V348H1300.5V356H1302.5ZM1302.5 340V332H1300.5V340H1302.5ZM1302.5 324V316H1300.5V324H1302.5ZM1302.5 308V300H1300.5V308H1302.5ZM1302.5 292V284H1300.5V292H1302.5ZM1302.5 276V268H1300.5V276H1302.5ZM1302.5 260V252H1300.5V260H1302.5ZM1302.5 244V236H1300.5V244H1302.5ZM1302.5 228V220H1300.5V228H1302.5ZM1302.5 212V204H1300.5V212H1302.5ZM1302.5 196V188H1300.5V196H1302.5ZM1302.5 180V172H1300.5V180H1302.5ZM1302.5 164V156H1300.5V164H1302.5ZM1302.5 148V140H1300.5V148H1302.5ZM1302.5 132V124H1300.5V132H1302.5ZM1302.5 116V108H1300.5V116H1302.5ZM1302.5 100V92H1300.5V100H1302.5ZM1302.5 84V76H1300.5V84H1302.5ZM1302.5 68V60H1300.5V68H1302.5ZM1302.5 52V44H1300.5V52H1302.5ZM1302.5 36V28H1300.5V36H1302.5ZM1302.5 20V12H1300.5V20H1302.5ZM1302.5 4V0H1300.5V4H1302.5Z" fill="#425466" fill-opacity="0.11" mask="url(#path-5-inside-3_1042_6668)"/>
<mask id="path-7-inside-4_1042_6668" fill="white">
<path d="M1301.5 0H1643V1024H1301.5V0Z"/>
</mask>
<path d="M1643.5 1024V1020H1642.5V1024H1643.5ZM1643.5 1012V1004H1642.5V1012H1643.5ZM1643.5 996V988H1642.5V996H1643.5ZM1643.5 980V972H1642.5V980H1643.5ZM1643.5 964V956H1642.5V964H1643.5ZM1643.5 948V940H1642.5V948H1643.5ZM1643.5 932V924H1642.5V932H1643.5ZM1643.5 916V908H1642.5V916H1643.5ZM1643.5 900V892H1642.5V900H1643.5ZM1643.5 884V876H1642.5V884H1643.5ZM1643.5 868V860H1642.5V868H1643.5ZM1643.5 852V844H1642.5V852H1643.5ZM1643.5 836V828H1642.5V836H1643.5ZM1643.5 820V812H1642.5V820H1643.5ZM1643.5 804V796H1642.5V804H1643.5ZM1643.5 788V780H1642.5V788H1643.5ZM1643.5 772V764H1642.5V772H1643.5ZM1643.5 756V748H1642.5V756H1643.5ZM1643.5 740V732H1642.5V740H1643.5ZM1643.5 724V716H1642.5V724H1643.5ZM1643.5 708V700H1642.5V708H1643.5ZM1643.5 692V684H1642.5V692H1643.5ZM1643.5 676V668H1642.5V676H1643.5ZM1643.5 660V652H1642.5V660H1643.5ZM1643.5 644V636H1642.5V644H1643.5ZM1643.5 628V620H1642.5V628H1643.5ZM1643.5 612V604H1642.5V612H1643.5ZM1643.5 596V588H1642.5V596H1643.5ZM1643.5 580V572H1642.5V580H1643.5ZM1643.5 564V556H1642.5V564H1643.5ZM1643.5 548V540H1642.5V548H1643.5ZM1643.5 532V524H1642.5V532H1643.5ZM1643.5 516V508H1642.5V516H1643.5ZM1643.5 500V492H1642.5V500H1643.5ZM1643.5 484V476H1642.5V484H1643.5ZM1643.5 468V460H1642.5V468H1643.5ZM1643.5 452V444H1642.5V452H1643.5ZM1643.5 436V428H1642.5V436H1643.5ZM1643.5 420V412H1642.5V420H1643.5ZM1643.5 404V396H1642.5V404H1643.5ZM1643.5 388V380H1642.5V388H1643.5ZM1643.5 372V364H1642.5V372H1643.5ZM1643.5 356V348H1642.5V356H1643.5ZM1643.5 340V332H1642.5V340H1643.5ZM1643.5 324V316H1642.5V324H1643.5ZM1643.5 308V300H1642.5V308H1643.5ZM1643.5 292V284H1642.5V292H1643.5ZM1643.5 276V268H1642.5V276H1643.5ZM1643.5 260V252H1642.5V260H1643.5ZM1643.5 244V236H1642.5V244H1643.5ZM1643.5 228V220H1642.5V228H1643.5ZM1643.5 212V204H1642.5V212H1643.5ZM1643.5 196V188H1642.5V196H1643.5ZM1643.5 180V172H1642.5V180H1643.5ZM1643.5 164V156H1642.5V164H1643.5ZM1643.5 148V140H1642.5V148H1643.5ZM1643.5 132V124H1642.5V132H1643.5ZM1643.5 116V108H1642.5V116H1643.5ZM1643.5 100V92H1642.5V100H1643.5ZM1643.5 84V76H1642.5V84H1643.5ZM1643.5 68V60H1642.5V68H1643.5ZM1643.5 52V44H1642.5V52H1643.5ZM1643.5 36V28H1642.5V36H1643.5ZM1643.5 20V12H1642.5V20H1643.5ZM1643.5 4V0H1642.5V4H1643.5ZM1644 1024V1020H1642V1024H1644ZM1644 1012V1004H1642V1012H1644ZM1644 996V988H1642V996H1644ZM1644 980V972H1642V980H1644ZM1644 964V956H1642V964H1644ZM1644 948V940H1642V948H1644ZM1644 932V924H1642V932H1644ZM1644 916V908H1642V916H1644ZM1644 900V892H1642V900H1644ZM1644 884V876H1642V884H1644ZM1644 868V860H1642V868H1644ZM1644 852V844H1642V852H1644ZM1644 836V828H1642V836H1644ZM1644 820V812H1642V820H1644ZM1644 804V796H1642V804H1644ZM1644 788V780H1642V788H1644ZM1644 772V764H1642V772H1644ZM1644 756V748H1642V756H1644ZM1644 740V732H1642V740H1644ZM1644 724V716H1642V724H1644ZM1644 708V700H1642V708H1644ZM1644 692V684H1642V692H1644ZM1644 676V668H1642V676H1644ZM1644 660V652H1642V660H1644ZM1644 644V636H1642V644H1644ZM1644 628V620H1642V628H1644ZM1644 612V604H1642V612H1644ZM1644 596V588H1642V596H1644ZM1644 580V572H1642V580H1644ZM1644 564V556H1642V564H1644ZM1644 548V540H1642V548H1644ZM1644 532V524H1642V532H1644ZM1644 516V508H1642V516H1644ZM1644 500V492H1642V500H1644ZM1644 484V476H1642V484H1644ZM1644 468V460H1642V468H1644ZM1644 452V444H1642V452H1644ZM1644 436V428H1642V436H1644ZM1644 420V412H1642V420H1644ZM1644 404V396H1642V404H1644ZM1644 388V380H1642V388H1644ZM1644 372V364H1642V372H1644ZM1644 356V348H1642V356H1644ZM1644 340V332H1642V340H1644ZM1644 324V316H1642V324H1644ZM1644 308V300H1642V308H1644ZM1644 292V284H1642V292H1644ZM1644 276V268H1642V276H1644ZM1644 260V252H1642V260H1644ZM1644 244V236H1642V244H1644ZM1644 228V220H1642V228H1644ZM1644 212V204H1642V212H1644ZM1644 196V188H1642V196H1644ZM1644 180V172H1642V180H1644ZM1644 164V156H1642V164H1644ZM1644 148V140H1642V148H1644ZM1644 132V124H1642V132H1644ZM1644 116V108H1642V116H1644ZM1644 100V92H1642V100H1644ZM1644 84V76H1642V84H1644ZM1644 68V60H1642V68H1644ZM1644 52V44H1642V52H1644ZM1644 36V28H1642V36H1644ZM1644 20V12H1642V20H1644ZM1644 4V0H1642V4H1644Z" fill="#425466" fill-opacity="0.11" mask="url(#path-7-inside-4_1042_6668)"/>
</svg>
